<svg width="72" height="72" viewBox="0 0 72 72" fill="none" xmlns="http://www.w3.org/2000/svg">
<g clip-path="url(#clip0_37_455)">
<path d="M22.111 38.8617C21.558 40.8071 21.0234 42.6855 20.4856 44.5589C20.1638 45.6833 20.1605 45.6833 18.9775 45.6833C14.6811 45.6833 10.3863 45.6984 6.09159 45.6833C3.14074 45.6682 0.947298 43.8216 0.441247 40.9814C0.391536 40.6582 0.370229 40.3313 0.377571 40.0045C0.377571 34.754 0.377571 29.4997 0.377571 24.2415C0.37422 21.0175 2.81399 18.5626 6.02456 18.5626C10.8002 18.5548 15.5753 18.5548 20.3498 18.5626C23.4565 18.5626 25.8142 20.5986 26.0471 23.6986C26.2392 26.0466 26.2286 28.4069 26.0153 30.7531C25.7254 33.6671 23.5755 35.5673 20.6531 35.5857C17.3822 35.6058 14.118 35.5857 10.8421 35.5975C10.3981 35.5975 10.2137 35.5505 10.3679 35.0294C10.9376 33.1113 11.4789 31.1849 11.9916 29.25C12.1022 28.8345 12.2999 28.7641 12.6736 28.7658C14.6844 28.7809 16.6852 28.7658 18.6909 28.7825C19.1333 28.7825 19.3092 28.6904 19.2841 28.2145C19.2447 27.4738 19.2447 26.7316 19.2841 25.9909C19.3109 25.5083 19.1702 25.3625 18.6708 25.3658C15.4653 25.3893 12.2614 25.3658 9.05584 25.3843C8.41071 25.3843 7.56115 25.0961 7.17407 25.51C6.78699 25.9238 7.0685 26.755 7.06683 27.4051C7.05677 31.0229 7.06683 34.6423 7.05007 38.2618C7.05007 38.7494 7.17072 38.8818 7.66337 38.8801C12.2212 38.86 16.7773 38.8684 21.3334 38.8684L22.111 38.8617ZM47.4789 41.8343C47.4705 39.0225 45.3005 36.7771 42.487 36.7587C37.6701 36.7274 32.8525 36.7274 28.0344 36.7587C27.3774 36.7563 26.7264 36.8838 26.1188 37.134C25.5113 37.3842 24.9593 37.7522 24.4945 38.2166C24.0298 38.681 23.6615 39.2328 23.4109 39.8402C23.1602 40.4476 23.0323 41.0985 23.0342 41.7555C23.0091 48.7531 23.0342 55.7507 23.0141 62.7483C23.0141 63.2292 23.1817 63.318 23.6174 63.313C25.4924 63.2929 27.3675 63.2744 29.2409 63.3213C29.8743 63.3381 29.9782 63.1169 29.9765 62.5505C29.9581 56.4478 29.9765 50.3433 29.9531 44.2389C29.9531 43.696 30.0972 43.5451 30.6418 43.5502C33.6937 43.577 36.7457 43.577 39.7976 43.5502C40.3841 43.5502 40.5617 43.6842 40.5584 44.2958C40.5349 50.4003 40.5584 56.5031 40.5282 62.6075C40.5282 63.199 40.6958 63.3297 41.2554 63.318C43.1288 63.2828 45.0039 63.2878 46.879 63.318C47.3716 63.3264 47.4973 63.1856 47.4939 62.6997C47.4722 59.1674 47.4822 55.6367 47.4822 52.1044C47.4789 48.6794 47.4872 45.256 47.4755 41.8343H47.4789ZM49.3355 32.1925C49.8885 32.1925 50.0778 32.0115 50.2085 31.5122C50.6827 29.6824 51.1771 27.8542 51.7166 26.0411C51.8842 25.4831 51.7937 25.3508 51.2139 25.3524C46.0194 25.3726 40.8399 25.3524 35.652 25.3759C35.1728 25.3759 35.0303 25.272 35.0337 24.7727C35.0605 21.7866 35.0605 18.8 35.0337 15.8129C35.0337 15.208 35.1426 15.0102 35.7995 15.0153C39.811 15.0504 43.8209 15.027 47.8324 15.0421C48.3033 15.0421 48.4876 15.0102 48.3184 14.4472C47.7721 12.614 47.2655 10.7708 46.7985 8.91751C46.6712 8.41481 46.4316 8.34276 45.9858 8.34276C41.8453 8.35616 37.703 8.34276 33.5625 8.35114C30.6384 8.35114 28.5019 10.3351 28.4668 13.2474C28.4075 17.9103 28.4075 22.5747 28.4668 27.2409C28.4986 30.1817 30.6451 32.1791 33.5893 32.1808C36.1396 32.1808 38.69 32.1808 41.2404 32.1808C43.9264 32.1758 46.6293 32.1556 49.3321 32.1925H49.3355ZM71.7894 57.0795C72.3105 57.0795 72.4697 56.9823 72.3022 56.4344C71.7492 54.6246 71.218 52.8082 70.7237 50.9817C70.5896 50.479 70.3685 50.355 69.8691 50.3567C65.6179 50.3785 61.3651 50.3567 57.1139 50.3819C56.6213 50.3819 56.499 50.2528 56.5023 49.7652C56.5258 46.5167 56.5258 43.2681 56.5023 40.0195C56.5023 39.4733 56.6347 39.3359 57.181 39.3392C60.6915 39.366 64.202 39.3392 67.7125 39.361C68.0912 39.361 68.2873 39.2822 68.3928 38.8801C68.8955 36.943 69.42 35.0127 69.9546 33.0823C70.0702 32.6634 69.9948 32.526 69.5239 32.5276C64.5958 32.5461 59.6677 32.5276 54.7412 32.5511C54.0906 32.5528 53.4467 32.6834 52.8468 32.9353C52.2469 33.1873 51.7029 33.5555 51.2461 34.0189C50.7893 34.4822 50.4288 35.0314 50.1854 35.6349C49.942 36.2383 49.8206 36.8839 49.8281 37.5345C49.8125 42.3102 49.8125 47.0858 49.8281 51.8615C49.8365 54.8358 52.0836 57.056 55.0445 57.0694C57.7468 57.0694 60.4507 57.0694 63.1564 57.0694C66.0352 57.0694 68.914 57.0594 71.7928 57.0795H71.7894Z" fill="white"/>
</g>
<defs>
<clipPath id="clip0_37_455">
<rect width="72" height="72" fill="white"/>
</clipPath>
</defs>
</svg>
